<mxfile host="Electron" modified="2023-05-23T14:07:02.165Z" agent="Mozilla/5.0 (Windows NT 10.0; Win64; x64) AppleWebKit/537.36 (KHTML, like Gecko) draw.io/21.2.8 Chrome/112.0.5615.165 Electron/24.2.0 Safari/537.36" etag="KmT2HP1we8zRiaj3En7n" version="21.2.8" type="device">
  <diagram name="Seite-1" id="BqQE9dgMU9yn-Ust_TR6">
    <mxGraphModel dx="2122" dy="768" grid="1" gridSize="10" guides="1" tooltips="1" connect="1" arrows="1" fold="1" page="1" pageScale="1" pageWidth="827" pageHeight="1169" math="0" shadow="0">
      <root>
        <mxCell id="0" />
        <mxCell id="1" parent="0" />
        <mxCell id="UOAxCghRJmTxo2BegXRX-1" value="" style="edgeStyle=orthogonalEdgeStyle;rounded=0;orthogonalLoop=1;jettySize=auto;html=1;entryX=0;entryY=0.5;entryDx=0;entryDy=0;fontSize=30;fontFamily=Roboto Slab;fontSource=https%3A%2F%2Ffonts.googleapis.com%2Fcss%3Ffamily%3DRoboto%2BSlab;strokeWidth=3;" edge="1" parent="1" source="UOAxCghRJmTxo2BegXRX-2" target="UOAxCghRJmTxo2BegXRX-9">
          <mxGeometry relative="1" as="geometry" />
        </mxCell>
        <mxCell id="UOAxCghRJmTxo2BegXRX-2" value="C-Enc" style="shape=trapezoid;perimeter=trapezoidPerimeter;whiteSpace=wrap;html=1;fixedSize=1;rotation=90;fillColor=#F7FEFF;strokeColor=#008080;size=40;horizontal=0;fontSize=30;fontFamily=Roboto Slab;fontSource=https%3A%2F%2Ffonts.googleapis.com%2Fcss%3Ffamily%3DRoboto%2BSlab;strokeWidth=3;" vertex="1" parent="1">
          <mxGeometry x="200" y="910" width="150" height="100" as="geometry" />
        </mxCell>
        <mxCell id="UOAxCghRJmTxo2BegXRX-3" value="" style="edgeStyle=orthogonalEdgeStyle;rounded=0;orthogonalLoop=1;jettySize=auto;html=1;fontSize=30;fontFamily=Roboto Slab;fontSource=https%3A%2F%2Ffonts.googleapis.com%2Fcss%3Ffamily%3DRoboto%2BSlab;strokeWidth=3;" edge="1" parent="1" source="UOAxCghRJmTxo2BegXRX-4" target="UOAxCghRJmTxo2BegXRX-10">
          <mxGeometry relative="1" as="geometry" />
        </mxCell>
        <mxCell id="UOAxCghRJmTxo2BegXRX-4" value="Dec" style="shape=trapezoid;perimeter=trapezoidPerimeter;whiteSpace=wrap;html=1;fixedSize=1;rotation=90;strokeColor=#C71585;fillColor=#FDF8F7;size=40;verticalAlign=middle;labelPosition=center;verticalLabelPosition=middle;align=center;horizontal=0;direction=west;fontSize=30;fontFamily=Roboto Slab;fontSource=https%3A%2F%2Ffonts.googleapis.com%2Fcss%3Ffamily%3DRoboto%2BSlab;strokeWidth=3;" vertex="1" parent="1">
          <mxGeometry x="450" y="1010" width="150" height="100" as="geometry" />
        </mxCell>
        <mxCell id="UOAxCghRJmTxo2BegXRX-5" value="" style="edgeStyle=orthogonalEdgeStyle;rounded=0;orthogonalLoop=1;jettySize=auto;html=1;fontSize=30;fontFamily=Roboto Slab;fontSource=https%3A%2F%2Ffonts.googleapis.com%2Fcss%3Ffamily%3DRoboto%2BSlab;strokeWidth=3;" edge="1" parent="1" source="UOAxCghRJmTxo2BegXRX-7" target="UOAxCghRJmTxo2BegXRX-2">
          <mxGeometry relative="1" as="geometry" />
        </mxCell>
        <mxCell id="UOAxCghRJmTxo2BegXRX-6" style="edgeStyle=orthogonalEdgeStyle;rounded=0;orthogonalLoop=1;jettySize=auto;html=1;fontSize=30;strokeWidth=3;fontFamily=Roboto Slab;fontSource=https%3A%2F%2Ffonts.googleapis.com%2Fcss%3Ffamily%3DRoboto%2BSlab;" edge="1" parent="1" source="UOAxCghRJmTxo2BegXRX-7" target="UOAxCghRJmTxo2BegXRX-12">
          <mxGeometry relative="1" as="geometry" />
        </mxCell>
        <mxCell id="UOAxCghRJmTxo2BegXRX-7" value="X" style="rounded=0;whiteSpace=wrap;html=1;fontSize=30;fontFamily=Roboto Slab;fontSource=https%3A%2F%2Ffonts.googleapis.com%2Fcss%3Ffamily%3DRoboto%2BSlab;strokeWidth=3;" vertex="1" parent="1">
          <mxGeometry x="100" y="1020" width="80" height="80" as="geometry" />
        </mxCell>
        <mxCell id="UOAxCghRJmTxo2BegXRX-8" value="" style="edgeStyle=orthogonalEdgeStyle;rounded=0;orthogonalLoop=1;jettySize=auto;html=1;fontSize=30;fontFamily=Roboto Slab;fontSource=https%3A%2F%2Ffonts.googleapis.com%2Fcss%3Ffamily%3DRoboto%2BSlab;entryX=0.5;entryY=0;entryDx=0;entryDy=0;exitX=1;exitY=0.5;exitDx=0;exitDy=0;strokeWidth=3;" edge="1" parent="1" source="UOAxCghRJmTxo2BegXRX-9" target="UOAxCghRJmTxo2BegXRX-4">
          <mxGeometry relative="1" as="geometry">
            <mxPoint x="440.0000000000001" y="960" as="sourcePoint" />
            <mxPoint x="480.0000000000001" y="1060" as="targetPoint" />
            <Array as="points">
              <mxPoint x="450" y="960" />
              <mxPoint x="450" y="1060" />
            </Array>
          </mxGeometry>
        </mxCell>
        <mxCell id="UOAxCghRJmTxo2BegXRX-117" style="edgeStyle=orthogonalEdgeStyle;rounded=0;orthogonalLoop=1;jettySize=auto;html=1;entryX=0;entryY=0.5;entryDx=0;entryDy=0;strokeWidth=3;fontFamily=Roboto Slab;fontSource=https%3A%2F%2Ffonts.googleapis.com%2Fcss%3Ffamily%3DRoboto%2BSlab;fontSize=30;" edge="1" parent="1" source="UOAxCghRJmTxo2BegXRX-9" target="UOAxCghRJmTxo2BegXRX-116">
          <mxGeometry relative="1" as="geometry" />
        </mxCell>
        <mxCell id="UOAxCghRJmTxo2BegXRX-9" value="C" style="rounded=0;whiteSpace=wrap;html=1;fontSize=30;fontFamily=Roboto Slab;fontSource=https%3A%2F%2Ffonts.googleapis.com%2Fcss%3Ffamily%3DRoboto%2BSlab;strokeWidth=3;" vertex="1" parent="1">
          <mxGeometry x="355" y="920" width="80" height="80" as="geometry" />
        </mxCell>
        <mxCell id="UOAxCghRJmTxo2BegXRX-10" value="X&#39;" style="rounded=0;whiteSpace=wrap;html=1;fontSize=30;fontFamily=Roboto Slab;fontSource=https%3A%2F%2Ffonts.googleapis.com%2Fcss%3Ffamily%3DRoboto%2BSlab;strokeWidth=3;" vertex="1" parent="1">
          <mxGeometry x="600" y="1020" width="80" height="80" as="geometry" />
        </mxCell>
        <mxCell id="UOAxCghRJmTxo2BegXRX-11" style="edgeStyle=orthogonalEdgeStyle;rounded=0;orthogonalLoop=1;jettySize=auto;html=1;entryX=0;entryY=0.5;entryDx=0;entryDy=0;fontSize=30;strokeWidth=3;fontFamily=Roboto Slab;fontSource=https%3A%2F%2Ffonts.googleapis.com%2Fcss%3Ffamily%3DRoboto%2BSlab;" edge="1" parent="1" source="UOAxCghRJmTxo2BegXRX-12" target="UOAxCghRJmTxo2BegXRX-14">
          <mxGeometry relative="1" as="geometry" />
        </mxCell>
        <mxCell id="UOAxCghRJmTxo2BegXRX-12" value="S-Enc" style="shape=trapezoid;perimeter=trapezoidPerimeter;whiteSpace=wrap;html=1;fixedSize=1;rotation=90;fillColor=#F7FEFF;strokeColor=#008080;size=40;horizontal=0;fontSize=30;fontFamily=Roboto Slab;fontSource=https%3A%2F%2Ffonts.googleapis.com%2Fcss%3Ffamily%3DRoboto%2BSlab;strokeWidth=3;" vertex="1" parent="1">
          <mxGeometry x="200" y="1090" width="150" height="100" as="geometry" />
        </mxCell>
        <mxCell id="UOAxCghRJmTxo2BegXRX-13" style="edgeStyle=orthogonalEdgeStyle;rounded=0;orthogonalLoop=1;jettySize=auto;html=1;entryX=0.5;entryY=0;entryDx=0;entryDy=0;exitX=1;exitY=0.5;exitDx=0;exitDy=0;fontSize=30;strokeWidth=3;fontFamily=Roboto Slab;fontSource=https%3A%2F%2Ffonts.googleapis.com%2Fcss%3Ffamily%3DRoboto%2BSlab;" edge="1" parent="1" source="UOAxCghRJmTxo2BegXRX-14" target="UOAxCghRJmTxo2BegXRX-4">
          <mxGeometry relative="1" as="geometry">
            <mxPoint x="415" y="1140" as="sourcePoint" />
            <mxPoint x="480" y="1060" as="targetPoint" />
            <Array as="points">
              <mxPoint x="450" y="1140" />
              <mxPoint x="450" y="1060" />
            </Array>
          </mxGeometry>
        </mxCell>
        <mxCell id="UOAxCghRJmTxo2BegXRX-14" value="z" style="rounded=0;whiteSpace=wrap;html=1;fontSize=30;fontFamily=Roboto Slab;fontSource=https%3A%2F%2Ffonts.googleapis.com%2Fcss%3Ffamily%3DRoboto%2BSlab;strokeWidth=3;" vertex="1" parent="1">
          <mxGeometry x="380" y="1090" width="30" height="100" as="geometry" />
        </mxCell>
        <mxCell id="UOAxCghRJmTxo2BegXRX-16" value="Enc" style="shape=trapezoid;perimeter=trapezoidPerimeter;whiteSpace=wrap;html=1;fixedSize=1;rotation=90;fillColor=#F7FEFF;strokeColor=#008080;size=40;horizontal=0;fontSize=30;fontFamily=Roboto Slab;fontSource=https%3A%2F%2Ffonts.googleapis.com%2Fcss%3Ffamily%3DRoboto%2BSlab;strokeWidth=3;" vertex="1" parent="1">
          <mxGeometry x="210" y="1560" width="150" height="100" as="geometry" />
        </mxCell>
        <mxCell id="UOAxCghRJmTxo2BegXRX-52" style="edgeStyle=orthogonalEdgeStyle;rounded=0;orthogonalLoop=1;jettySize=auto;html=1;entryX=0;entryY=0.5;entryDx=0;entryDy=0;strokeWidth=3;fontFamily=Roboto Slab;fontSource=https%3A%2F%2Ffonts.googleapis.com%2Fcss%3Ffamily%3DRoboto%2BSlab;fontSize=30;" edge="1" parent="1" source="UOAxCghRJmTxo2BegXRX-18" target="UOAxCghRJmTxo2BegXRX-24">
          <mxGeometry relative="1" as="geometry" />
        </mxCell>
        <mxCell id="UOAxCghRJmTxo2BegXRX-18" value="Dec" style="shape=trapezoid;perimeter=trapezoidPerimeter;whiteSpace=wrap;html=1;fixedSize=1;rotation=90;strokeColor=#C71585;fillColor=#FDF8F7;size=40;verticalAlign=middle;labelPosition=center;verticalLabelPosition=middle;align=center;horizontal=0;direction=west;fontSize=30;fontFamily=Roboto Slab;fontSource=https%3A%2F%2Ffonts.googleapis.com%2Fcss%3Ffamily%3DRoboto%2BSlab;strokeWidth=3;" vertex="1" parent="1">
          <mxGeometry x="310" y="1560" width="150" height="100" as="geometry" />
        </mxCell>
        <mxCell id="UOAxCghRJmTxo2BegXRX-19" value="" style="edgeStyle=orthogonalEdgeStyle;rounded=0;orthogonalLoop=1;jettySize=auto;html=1;fontSize=30;fontFamily=Roboto Slab;fontSource=https%3A%2F%2Ffonts.googleapis.com%2Fcss%3Ffamily%3DRoboto%2BSlab;strokeWidth=3;" edge="1" parent="1" source="UOAxCghRJmTxo2BegXRX-21" target="UOAxCghRJmTxo2BegXRX-16">
          <mxGeometry relative="1" as="geometry" />
        </mxCell>
        <mxCell id="UOAxCghRJmTxo2BegXRX-20" style="edgeStyle=orthogonalEdgeStyle;rounded=0;orthogonalLoop=1;jettySize=auto;html=1;fontSize=30;strokeWidth=3;fontFamily=Roboto Slab;fontSource=https%3A%2F%2Ffonts.googleapis.com%2Fcss%3Ffamily%3DRoboto%2BSlab;" edge="1" parent="1" source="UOAxCghRJmTxo2BegXRX-21" target="UOAxCghRJmTxo2BegXRX-26">
          <mxGeometry relative="1" as="geometry" />
        </mxCell>
        <mxCell id="UOAxCghRJmTxo2BegXRX-21" value="X" style="rounded=0;whiteSpace=wrap;html=1;fontSize=30;fontFamily=Roboto Slab;fontSource=https%3A%2F%2Ffonts.googleapis.com%2Fcss%3Ffamily%3DRoboto%2BSlab;strokeWidth=3;" vertex="1" parent="1">
          <mxGeometry x="110" y="1670" width="80" height="80" as="geometry" />
        </mxCell>
        <mxCell id="UOAxCghRJmTxo2BegXRX-53" style="edgeStyle=orthogonalEdgeStyle;rounded=0;orthogonalLoop=1;jettySize=auto;html=1;strokeWidth=3;entryX=0;entryY=0.25;entryDx=0;entryDy=0;strokeColor=#c71585;fontFamily=Roboto Slab;fontSource=https%3A%2F%2Ffonts.googleapis.com%2Fcss%3Ffamily%3DRoboto%2BSlab;fontSize=30;" edge="1" parent="1" source="UOAxCghRJmTxo2BegXRX-24" target="UOAxCghRJmTxo2BegXRX-83">
          <mxGeometry relative="1" as="geometry">
            <mxPoint x="700" y="1690" as="targetPoint" />
            <Array as="points">
              <mxPoint x="640" y="1610" />
              <mxPoint x="640" y="1703" />
            </Array>
          </mxGeometry>
        </mxCell>
        <mxCell id="UOAxCghRJmTxo2BegXRX-89" style="edgeStyle=orthogonalEdgeStyle;rounded=0;orthogonalLoop=1;jettySize=auto;html=1;entryX=0;entryY=0.75;entryDx=0;entryDy=0;strokeColor=#c71585;strokeWidth=3;fontFamily=Roboto Slab;fontSource=https%3A%2F%2Ffonts.googleapis.com%2Fcss%3Ffamily%3DRoboto%2BSlab;fontSize=30;" edge="1" parent="1" source="UOAxCghRJmTxo2BegXRX-24" target="UOAxCghRJmTxo2BegXRX-85">
          <mxGeometry relative="1" as="geometry">
            <Array as="points">
              <mxPoint x="640" y="1610" />
              <mxPoint x="640" y="1480" />
            </Array>
          </mxGeometry>
        </mxCell>
        <mxCell id="UOAxCghRJmTxo2BegXRX-90" style="edgeStyle=orthogonalEdgeStyle;rounded=0;orthogonalLoop=1;jettySize=auto;html=1;entryX=0;entryY=0.75;entryDx=0;entryDy=0;strokeColor=#c71585;strokeWidth=3;fontFamily=Roboto Slab;fontSource=https%3A%2F%2Ffonts.googleapis.com%2Fcss%3Ffamily%3DRoboto%2BSlab;fontSize=30;" edge="1" parent="1" source="UOAxCghRJmTxo2BegXRX-24" target="UOAxCghRJmTxo2BegXRX-87">
          <mxGeometry relative="1" as="geometry">
            <Array as="points">
              <mxPoint x="640" y="1610" />
              <mxPoint x="640" y="1380" />
            </Array>
          </mxGeometry>
        </mxCell>
        <mxCell id="UOAxCghRJmTxo2BegXRX-24" value="S&lt;br style=&quot;font-size: 30px;&quot;&gt;Pred" style="rounded=0;whiteSpace=wrap;html=1;fontSize=30;fontFamily=Roboto Slab;fontSource=https%3A%2F%2Ffonts.googleapis.com%2Fcss%3Ffamily%3DRoboto%2BSlab;strokeWidth=3;" vertex="1" parent="1">
          <mxGeometry x="510" y="1570" width="80" height="80" as="geometry" />
        </mxCell>
        <mxCell id="UOAxCghRJmTxo2BegXRX-26" value="Enc" style="shape=trapezoid;perimeter=trapezoidPerimeter;whiteSpace=wrap;html=1;fixedSize=1;rotation=90;fillColor=#F7FEFF;strokeColor=#008080;size=40;horizontal=0;fontSize=30;fontFamily=Roboto Slab;fontSource=https%3A%2F%2Ffonts.googleapis.com%2Fcss%3Ffamily%3DRoboto%2BSlab;strokeWidth=3;" vertex="1" parent="1">
          <mxGeometry x="210" y="1740" width="150" height="100" as="geometry" />
        </mxCell>
        <mxCell id="UOAxCghRJmTxo2BegXRX-79" style="edgeStyle=orthogonalEdgeStyle;rounded=0;orthogonalLoop=1;jettySize=auto;html=1;entryX=0;entryY=0.5;entryDx=0;entryDy=0;strokeWidth=3;fontFamily=Roboto Slab;fontSource=https%3A%2F%2Ffonts.googleapis.com%2Fcss%3Ffamily%3DRoboto%2BSlab;fontSize=30;" edge="1" parent="1" source="UOAxCghRJmTxo2BegXRX-29" target="UOAxCghRJmTxo2BegXRX-30">
          <mxGeometry relative="1" as="geometry" />
        </mxCell>
        <mxCell id="UOAxCghRJmTxo2BegXRX-29" value="Dec" style="shape=trapezoid;perimeter=trapezoidPerimeter;whiteSpace=wrap;html=1;fixedSize=1;rotation=90;strokeColor=#C71585;fillColor=#FDF8F7;size=40;verticalAlign=middle;labelPosition=center;verticalLabelPosition=middle;align=center;horizontal=0;direction=west;fontSize=30;fontFamily=Roboto Slab;fontSource=https%3A%2F%2Ffonts.googleapis.com%2Fcss%3Ffamily%3DRoboto%2BSlab;strokeWidth=3;" vertex="1" parent="1">
          <mxGeometry x="310" y="1740" width="150" height="100" as="geometry" />
        </mxCell>
        <mxCell id="UOAxCghRJmTxo2BegXRX-54" style="edgeStyle=orthogonalEdgeStyle;rounded=0;orthogonalLoop=1;jettySize=auto;html=1;strokeWidth=3;strokeColor=#C71585;fontFamily=Roboto Slab;fontSource=https%3A%2F%2Ffonts.googleapis.com%2Fcss%3Ffamily%3DRoboto%2BSlab;fontSize=30;entryX=0;entryY=0.75;entryDx=0;entryDy=0;" edge="1" parent="1" source="UOAxCghRJmTxo2BegXRX-30" target="UOAxCghRJmTxo2BegXRX-83">
          <mxGeometry relative="1" as="geometry">
            <mxPoint x="680" y="1730" as="targetPoint" />
          </mxGeometry>
        </mxCell>
        <mxCell id="UOAxCghRJmTxo2BegXRX-30" value="T&lt;br style=&quot;font-size: 30px;&quot;&gt;Pred" style="rounded=0;whiteSpace=wrap;html=1;fontSize=30;fontFamily=Roboto Slab;fontSource=https%3A%2F%2Ffonts.googleapis.com%2Fcss%3Ffamily%3DRoboto%2BSlab;strokeWidth=3;" vertex="1" parent="1">
          <mxGeometry x="510" y="1750" width="80" height="80" as="geometry" />
        </mxCell>
        <mxCell id="UOAxCghRJmTxo2BegXRX-93" style="edgeStyle=orthogonalEdgeStyle;rounded=0;orthogonalLoop=1;jettySize=auto;html=1;entryX=0;entryY=0.25;entryDx=0;entryDy=0;strokeWidth=3;fontFamily=Roboto Slab;fontSource=https%3A%2F%2Ffonts.googleapis.com%2Fcss%3Ffamily%3DRoboto%2BSlab;fontSize=30;" edge="1" parent="1" source="UOAxCghRJmTxo2BegXRX-31" target="UOAxCghRJmTxo2BegXRX-85">
          <mxGeometry relative="1" as="geometry" />
        </mxCell>
        <mxCell id="UOAxCghRJmTxo2BegXRX-94" style="edgeStyle=orthogonalEdgeStyle;rounded=0;orthogonalLoop=1;jettySize=auto;html=1;entryX=0;entryY=0.25;entryDx=0;entryDy=0;exitX=1;exitY=0.5;exitDx=0;exitDy=0;strokeWidth=3;fontFamily=Roboto Slab;fontSource=https%3A%2F%2Ffonts.googleapis.com%2Fcss%3Ffamily%3DRoboto%2BSlab;fontSize=30;" edge="1" parent="1" source="UOAxCghRJmTxo2BegXRX-31" target="UOAxCghRJmTxo2BegXRX-87">
          <mxGeometry relative="1" as="geometry">
            <Array as="points">
              <mxPoint x="620" y="1446" />
              <mxPoint x="620" y="1346" />
            </Array>
          </mxGeometry>
        </mxCell>
        <mxCell id="UOAxCghRJmTxo2BegXRX-31" value="S&lt;br style=&quot;font-size: 30px;&quot;&gt;GT" style="rounded=0;whiteSpace=wrap;html=1;fontSize=30;fontFamily=Roboto Slab;fontSource=https%3A%2F%2Ffonts.googleapis.com%2Fcss%3Ffamily%3DRoboto%2BSlab;strokeWidth=3;" vertex="1" parent="1">
          <mxGeometry x="110" y="1406" width="80" height="80" as="geometry" />
        </mxCell>
        <mxCell id="UOAxCghRJmTxo2BegXRX-75" style="edgeStyle=orthogonalEdgeStyle;rounded=0;orthogonalLoop=1;jettySize=auto;html=1;entryX=0;entryY=0.5;entryDx=0;entryDy=0;entryPerimeter=0;strokeWidth=3;exitX=1;exitY=0.5;exitDx=0;exitDy=0;fontFamily=Roboto Slab;fontSource=https%3A%2F%2Ffonts.googleapis.com%2Fcss%3Ffamily%3DRoboto%2BSlab;fontSize=30;" edge="1" parent="1" source="UOAxCghRJmTxo2BegXRX-83" target="UOAxCghRJmTxo2BegXRX-77">
          <mxGeometry relative="1" as="geometry">
            <mxPoint x="800" y="1690" as="sourcePoint" />
            <mxPoint x="1000" y="1640" as="targetPoint" />
          </mxGeometry>
        </mxCell>
        <mxCell id="UOAxCghRJmTxo2BegXRX-42" value="Enc" style="shape=trapezoid;perimeter=trapezoidPerimeter;whiteSpace=wrap;html=1;fixedSize=1;rotation=90;fillColor=#F7FEFF;strokeColor=#008080;size=40;horizontal=0;fontSize=30;fontFamily=Roboto Slab;fontSource=https%3A%2F%2Ffonts.googleapis.com%2Fcss%3Ffamily%3DRoboto%2BSlab;strokeWidth=3;" vertex="1" parent="1">
          <mxGeometry x="-280" y="1490" width="150" height="100" as="geometry" />
        </mxCell>
        <mxCell id="UOAxCghRJmTxo2BegXRX-125" style="edgeStyle=orthogonalEdgeStyle;rounded=0;orthogonalLoop=1;jettySize=auto;html=1;exitX=0.25;exitY=0;exitDx=0;exitDy=0;entryX=0.75;entryY=0;entryDx=0;entryDy=0;strokeWidth=3;fontFamily=Roboto Slab;fontSource=https%3A%2F%2Ffonts.googleapis.com%2Fcss%3Ffamily%3DRoboto%2BSlab;fontSize=30;" edge="1" parent="1" source="UOAxCghRJmTxo2BegXRX-43" target="UOAxCghRJmTxo2BegXRX-48">
          <mxGeometry relative="1" as="geometry">
            <mxPoint x="-153" y="1640" as="targetPoint" />
          </mxGeometry>
        </mxCell>
        <mxCell id="UOAxCghRJmTxo2BegXRX-133" value="&lt;font style=&quot;font-size: 30px;&quot;&gt;EMA&lt;/font&gt;" style="edgeLabel;html=1;align=center;verticalAlign=middle;resizable=0;points=[];fontFamily=Roboto Slab;fontSource=https%3A%2F%2Ffonts.googleapis.com%2Fcss%3Ffamily%3DRoboto%2BSlab;fontSize=30;" vertex="1" connectable="0" parent="UOAxCghRJmTxo2BegXRX-125">
          <mxGeometry x="-0.0706" y="-2" relative="1" as="geometry">
            <mxPoint as="offset" />
          </mxGeometry>
        </mxCell>
        <mxCell id="UOAxCghRJmTxo2BegXRX-43" value="Dec" style="shape=trapezoid;perimeter=trapezoidPerimeter;whiteSpace=wrap;html=1;fixedSize=1;rotation=90;strokeColor=#C71585;fillColor=#FDF8F7;size=40;verticalAlign=middle;labelPosition=center;verticalLabelPosition=middle;align=center;horizontal=0;direction=west;fontSize=30;fontFamily=Roboto Slab;fontSource=https%3A%2F%2Ffonts.googleapis.com%2Fcss%3Ffamily%3DRoboto%2BSlab;strokeWidth=3;" vertex="1" parent="1">
          <mxGeometry x="-180" y="1490" width="150" height="100" as="geometry" />
        </mxCell>
        <mxCell id="UOAxCghRJmTxo2BegXRX-47" value="Enc" style="shape=trapezoid;perimeter=trapezoidPerimeter;whiteSpace=wrap;html=1;fixedSize=1;rotation=90;fillColor=#F7FEFF;strokeColor=#008080;size=40;horizontal=0;fontSize=30;fontFamily=Roboto Slab;fontSource=https%3A%2F%2Ffonts.googleapis.com%2Fcss%3Ffamily%3DRoboto%2BSlab;strokeWidth=3;" vertex="1" parent="1">
          <mxGeometry x="-280" y="1710" width="150" height="100" as="geometry" />
        </mxCell>
        <mxCell id="UOAxCghRJmTxo2BegXRX-48" value="Dec" style="shape=trapezoid;perimeter=trapezoidPerimeter;whiteSpace=wrap;html=1;fixedSize=1;rotation=90;strokeColor=#C71585;fillColor=#FDF8F7;size=40;verticalAlign=middle;labelPosition=center;verticalLabelPosition=middle;align=center;horizontal=0;direction=west;fontSize=30;fontFamily=Roboto Slab;fontSource=https%3A%2F%2Ffonts.googleapis.com%2Fcss%3Ffamily%3DRoboto%2BSlab;strokeWidth=3;" vertex="1" parent="1">
          <mxGeometry x="-180" y="1710" width="150" height="100" as="geometry" />
        </mxCell>
        <mxCell id="UOAxCghRJmTxo2BegXRX-51" style="edgeStyle=orthogonalEdgeStyle;rounded=0;orthogonalLoop=1;jettySize=auto;html=1;entryX=0.75;entryY=1;entryDx=0;entryDy=0;strokeWidth=3;dashed=1;exitX=1;exitY=0.5;exitDx=0;exitDy=0;exitPerimeter=0;fontFamily=Roboto Slab;fontSource=https%3A%2F%2Ffonts.googleapis.com%2Fcss%3Ffamily%3DRoboto%2BSlab;fontSize=30;" edge="1" parent="1" source="UOAxCghRJmTxo2BegXRX-77" target="UOAxCghRJmTxo2BegXRX-18">
          <mxGeometry relative="1" as="geometry">
            <mxPoint x="1000" y="1670" as="sourcePoint" />
            <Array as="points">
              <mxPoint x="980" y="1607" />
              <mxPoint x="980" y="1530" />
              <mxPoint x="470" y="1530" />
              <mxPoint x="470" y="1573" />
            </Array>
          </mxGeometry>
        </mxCell>
        <mxCell id="UOAxCghRJmTxo2BegXRX-76" style="edgeStyle=orthogonalEdgeStyle;rounded=0;orthogonalLoop=1;jettySize=auto;html=1;entryX=0;entryY=0.5;entryDx=0;entryDy=0;entryPerimeter=0;strokeWidth=3;exitX=1;exitY=0.5;exitDx=0;exitDy=0;fontFamily=Roboto Slab;fontSource=https%3A%2F%2Ffonts.googleapis.com%2Fcss%3Ffamily%3DRoboto%2BSlab;fontSize=30;" edge="1" parent="1" source="UOAxCghRJmTxo2BegXRX-85" target="UOAxCghRJmTxo2BegXRX-77">
          <mxGeometry relative="1" as="geometry">
            <mxPoint x="800" y="1450.0666666666666" as="sourcePoint" />
            <mxPoint x="1000" y="1580" as="targetPoint" />
          </mxGeometry>
        </mxCell>
        <mxCell id="UOAxCghRJmTxo2BegXRX-74" style="edgeStyle=orthogonalEdgeStyle;rounded=0;orthogonalLoop=1;jettySize=auto;html=1;entryX=0;entryY=0.5;entryDx=0;entryDy=0;entryPerimeter=0;strokeWidth=3;exitX=1;exitY=0.5;exitDx=0;exitDy=0;fontFamily=Roboto Slab;fontSource=https%3A%2F%2Ffonts.googleapis.com%2Fcss%3Ffamily%3DRoboto%2BSlab;fontSize=30;" edge="1" parent="1" source="UOAxCghRJmTxo2BegXRX-87" target="UOAxCghRJmTxo2BegXRX-77">
          <mxGeometry relative="1" as="geometry">
            <mxPoint x="800" y="1330.0666666666666" as="sourcePoint" />
            <mxPoint x="1000" y="1570" as="targetPoint" />
          </mxGeometry>
        </mxCell>
        <mxCell id="UOAxCghRJmTxo2BegXRX-77" value="" style="verticalLabelPosition=bottom;shadow=0;dashed=0;align=center;html=1;verticalAlign=top;shape=mxgraph.electrical.abstract.summation_point;strokeWidth=3;fontFamily=Roboto Slab;fontSource=https%3A%2F%2Ffonts.googleapis.com%2Fcss%3Ffamily%3DRoboto%2BSlab;fontSize=30;" vertex="1" parent="1">
          <mxGeometry x="880" y="1570" width="75" height="75" as="geometry" />
        </mxCell>
        <mxCell id="UOAxCghRJmTxo2BegXRX-83" value="&lt;font style=&quot;font-size: 30px;&quot;&gt;L&lt;sub style=&quot;font-size: 30px;&quot;&gt;cons&lt;/sub&gt;&lt;/font&gt;" style="shape=hexagon;perimeter=hexagonPerimeter2;whiteSpace=wrap;html=1;fixedSize=1;strokeWidth=3;fontFamily=Roboto Slab;fontSource=https%3A%2F%2Ffonts.googleapis.com%2Fcss%3Ffamily%3DRoboto%2BSlab;fontSize=30;" vertex="1" parent="1">
          <mxGeometry x="690" y="1680" width="120" height="80" as="geometry" />
        </mxCell>
        <mxCell id="UOAxCghRJmTxo2BegXRX-87" value="&lt;font style=&quot;border-color: var(--border-color); font-size: 30px;&quot;&gt;L&lt;sub style=&quot;font-size: 30px;&quot;&gt;bnd&lt;/sub&gt;&lt;/font&gt;" style="shape=hexagon;perimeter=hexagonPerimeter2;whiteSpace=wrap;html=1;fixedSize=1;strokeWidth=3;fontFamily=Roboto Slab;fontSource=https%3A%2F%2Ffonts.googleapis.com%2Fcss%3Ffamily%3DRoboto%2BSlab;fontSize=30;" vertex="1" parent="1">
          <mxGeometry x="690" y="1323" width="120" height="80" as="geometry" />
        </mxCell>
        <mxCell id="UOAxCghRJmTxo2BegXRX-85" value="&lt;font style=&quot;border-color: var(--border-color); font-size: 30px;&quot;&gt;L&lt;/font&gt;&lt;font style=&quot;border-color: var(--border-color); font-size: 30px;&quot;&gt;&lt;font style=&quot;border-color: var(--border-color); font-size: 30px;&quot;&gt;&lt;sub style=&quot;border-color: var(--border-color); font-size: 30px;&quot;&gt;seg&lt;/sub&gt;&lt;/font&gt;&lt;/font&gt;" style="shape=hexagon;perimeter=hexagonPerimeter2;whiteSpace=wrap;html=1;fixedSize=1;strokeWidth=3;fontFamily=Roboto Slab;fontSource=https%3A%2F%2Ffonts.googleapis.com%2Fcss%3Ffamily%3DRoboto%2BSlab;fontSize=30;" vertex="1" parent="1">
          <mxGeometry x="690" y="1423" width="120" height="80" as="geometry" />
        </mxCell>
        <mxCell id="UOAxCghRJmTxo2BegXRX-103" style="edgeStyle=orthogonalEdgeStyle;rounded=0;orthogonalLoop=1;jettySize=auto;html=1;strokeWidth=3;fontFamily=Roboto Slab;fontSource=https%3A%2F%2Ffonts.googleapis.com%2Fcss%3Ffamily%3DRoboto%2BSlab;fontSize=30;" edge="1" parent="1" source="UOAxCghRJmTxo2BegXRX-101" target="UOAxCghRJmTxo2BegXRX-83">
          <mxGeometry relative="1" as="geometry">
            <Array as="points">
              <mxPoint x="683" y="1800" />
              <mxPoint x="750" y="1800" />
            </Array>
          </mxGeometry>
        </mxCell>
        <mxCell id="UOAxCghRJmTxo2BegXRX-101" value="&lt;font style=&quot;font-size: 30px;&quot;&gt;λ&lt;br style=&quot;font-size: 30px;&quot;&gt;Certain&lt;/font&gt;" style="shape=partialRectangle;whiteSpace=wrap;html=1;bottom=1;right=1;fillColor=none;direction=north;top=1;strokeWidth=3;noLabel=0;fixDash=0;container=0;dropTarget=0;left=1;fillOpacity=100;fontFamily=Roboto Slab;fontSource=https%3A%2F%2Ffonts.googleapis.com%2Fcss%3Ffamily%3DRoboto%2BSlab;fontSize=30;" vertex="1" parent="1">
          <mxGeometry x="622.5" y="1820" width="120" height="75" as="geometry" />
        </mxCell>
        <mxCell id="UOAxCghRJmTxo2BegXRX-104" style="edgeStyle=orthogonalEdgeStyle;rounded=0;orthogonalLoop=1;jettySize=auto;html=1;entryX=0.5;entryY=1;entryDx=0;entryDy=0;strokeWidth=3;fontFamily=Roboto Slab;fontSource=https%3A%2F%2Ffonts.googleapis.com%2Fcss%3Ffamily%3DRoboto%2BSlab;fontSize=30;" edge="1" parent="1" source="UOAxCghRJmTxo2BegXRX-102" target="UOAxCghRJmTxo2BegXRX-83">
          <mxGeometry relative="1" as="geometry">
            <Array as="points">
              <mxPoint x="817" y="1800" />
              <mxPoint x="750" y="1800" />
            </Array>
          </mxGeometry>
        </mxCell>
        <mxCell id="UOAxCghRJmTxo2BegXRX-102" value="&lt;font style=&quot;font-size: 30px;&quot;&gt;λ&lt;br style=&quot;font-size: 30px;&quot;&gt;Ramp&lt;/font&gt;" style="shape=partialRectangle;whiteSpace=wrap;html=1;bottom=1;right=1;fillColor=none;direction=north;strokeWidth=3;fontFamily=Roboto Slab;fontSource=https%3A%2F%2Ffonts.googleapis.com%2Fcss%3Ffamily%3DRoboto%2BSlab;fontSize=30;" vertex="1" parent="1">
          <mxGeometry x="757.5" y="1820" width="120" height="75" as="geometry" />
        </mxCell>
        <mxCell id="UOAxCghRJmTxo2BegXRX-116" value="Y&#39;" style="rounded=0;whiteSpace=wrap;html=1;fontSize=30;fontFamily=Roboto Slab;fontSource=https%3A%2F%2Ffonts.googleapis.com%2Fcss%3Ffamily%3DRoboto%2BSlab;strokeWidth=3;" vertex="1" parent="1">
          <mxGeometry x="600" y="890" width="80" height="80" as="geometry" />
        </mxCell>
        <mxCell id="UOAxCghRJmTxo2BegXRX-127" value="&lt;font style=&quot;font-size: 30px;&quot;&gt;Student&lt;/font&gt;" style="text;html=1;strokeColor=none;fillColor=none;align=center;verticalAlign=middle;whiteSpace=wrap;rounded=0;fontFamily=Roboto Slab;fontSource=https%3A%2F%2Ffonts.googleapis.com%2Fcss%3Ffamily%3DRoboto%2BSlab;fontSize=30;" vertex="1" parent="1">
          <mxGeometry x="307" y="1520" width="60" height="30" as="geometry" />
        </mxCell>
        <mxCell id="UOAxCghRJmTxo2BegXRX-129" value="&lt;font style=&quot;font-size: 30px;&quot;&gt;Teacher&lt;/font&gt;" style="text;html=1;strokeColor=none;fillColor=none;align=center;verticalAlign=middle;whiteSpace=wrap;rounded=0;fontFamily=Roboto Slab;fontSource=https%3A%2F%2Ffonts.googleapis.com%2Fcss%3Ffamily%3DRoboto%2BSlab;fontSize=30;" vertex="1" parent="1">
          <mxGeometry x="307" y="1850" width="60" height="30" as="geometry" />
        </mxCell>
        <mxCell id="UOAxCghRJmTxo2BegXRX-130" value="&lt;font style=&quot;font-size: 30px;&quot;&gt;Student&lt;/font&gt;" style="text;html=1;strokeColor=none;fillColor=none;align=center;verticalAlign=middle;whiteSpace=wrap;rounded=0;fontFamily=Roboto Slab;fontSource=https%3A%2F%2Ffonts.googleapis.com%2Fcss%3Ffamily%3DRoboto%2BSlab;fontSize=30;" vertex="1" parent="1">
          <mxGeometry x="-183" y="1450" width="60" height="30" as="geometry" />
        </mxCell>
        <mxCell id="UOAxCghRJmTxo2BegXRX-131" value="&lt;font style=&quot;font-size: 30px;&quot;&gt;Teacher&lt;/font&gt;" style="text;html=1;strokeColor=none;fillColor=none;align=center;verticalAlign=middle;whiteSpace=wrap;rounded=0;fontFamily=Roboto Slab;fontSource=https%3A%2F%2Ffonts.googleapis.com%2Fcss%3Ffamily%3DRoboto%2BSlab;fontSize=30;" vertex="1" parent="1">
          <mxGeometry x="-183" y="1827" width="60" height="30" as="geometry" />
        </mxCell>
        <mxCell id="UOAxCghRJmTxo2BegXRX-134" style="edgeStyle=orthogonalEdgeStyle;rounded=0;orthogonalLoop=1;jettySize=auto;html=1;fontSize=30;strokeWidth=3;fontFamily=Roboto Slab;fontSource=https%3A%2F%2Ffonts.googleapis.com%2Fcss%3Ffamily%3DRoboto%2BSlab;" edge="1" parent="1" source="UOAxCghRJmTxo2BegXRX-135" target="UOAxCghRJmTxo2BegXRX-136">
          <mxGeometry relative="1" as="geometry" />
        </mxCell>
        <mxCell id="UOAxCghRJmTxo2BegXRX-154" value="&lt;h3 style=&quot;font-size: 30px;&quot; class=&quot;LC20lb MBeuO DKV0Md&quot;&gt;η1&lt;/h3&gt;" style="edgeLabel;html=1;align=center;verticalAlign=middle;resizable=0;points=[];fontFamily=Roboto Slab;fontSource=https%3A%2F%2Ffonts.googleapis.com%2Fcss%3Ffamily%3DRoboto%2BSlab;fontSize=30;" vertex="1" connectable="0" parent="UOAxCghRJmTxo2BegXRX-134">
          <mxGeometry x="-0.3114" y="-7" relative="1" as="geometry">
            <mxPoint x="-30" y="-14" as="offset" />
          </mxGeometry>
        </mxCell>
        <mxCell id="UOAxCghRJmTxo2BegXRX-135" value="X" style="rounded=0;whiteSpace=wrap;html=1;fontSize=30;fontFamily=Roboto Slab;fontSource=https%3A%2F%2Ffonts.googleapis.com%2Fcss%3Ffamily%3DRoboto%2BSlab;strokeWidth=3;" vertex="1" parent="1">
          <mxGeometry x="1190" y="1624" width="80" height="80" as="geometry" />
        </mxCell>
        <mxCell id="UOAxCghRJmTxo2BegXRX-136" value="Enc" style="shape=trapezoid;perimeter=trapezoidPerimeter;whiteSpace=wrap;html=1;fixedSize=1;rotation=90;fillColor=#F7FEFF;strokeColor=#008080;size=40;horizontal=0;fontSize=30;fontFamily=Roboto Slab;fontSource=https%3A%2F%2Ffonts.googleapis.com%2Fcss%3Ffamily%3DRoboto%2BSlab;strokeWidth=3;" vertex="1" parent="1">
          <mxGeometry x="1380" y="1704" width="150" height="100" as="geometry" />
        </mxCell>
        <mxCell id="UOAxCghRJmTxo2BegXRX-137" style="edgeStyle=orthogonalEdgeStyle;rounded=0;orthogonalLoop=1;jettySize=auto;html=1;entryX=0;entryY=0.5;entryDx=0;entryDy=0;strokeWidth=3;fontFamily=Roboto Slab;fontSource=https%3A%2F%2Ffonts.googleapis.com%2Fcss%3Ffamily%3DRoboto%2BSlab;fontSize=30;" edge="1" parent="1" source="UOAxCghRJmTxo2BegXRX-138" target="UOAxCghRJmTxo2BegXRX-140">
          <mxGeometry relative="1" as="geometry" />
        </mxCell>
        <mxCell id="UOAxCghRJmTxo2BegXRX-167" style="edgeStyle=orthogonalEdgeStyle;rounded=0;orthogonalLoop=1;jettySize=auto;html=1;entryX=0;entryY=0.5;entryDx=0;entryDy=0;strokeWidth=3;" edge="1" parent="1" source="UOAxCghRJmTxo2BegXRX-138" target="UOAxCghRJmTxo2BegXRX-158">
          <mxGeometry relative="1" as="geometry" />
        </mxCell>
        <mxCell id="UOAxCghRJmTxo2BegXRX-168" style="edgeStyle=orthogonalEdgeStyle;rounded=0;orthogonalLoop=1;jettySize=auto;html=1;entryX=0;entryY=0.5;entryDx=0;entryDy=0;strokeWidth=3;" edge="1" parent="1" source="UOAxCghRJmTxo2BegXRX-138" target="UOAxCghRJmTxo2BegXRX-159">
          <mxGeometry relative="1" as="geometry" />
        </mxCell>
        <mxCell id="UOAxCghRJmTxo2BegXRX-138" value="Dec" style="shape=trapezoid;perimeter=trapezoidPerimeter;whiteSpace=wrap;html=1;fixedSize=1;rotation=90;strokeColor=#C71585;fillColor=#FDF8F7;size=40;verticalAlign=middle;labelPosition=center;verticalLabelPosition=middle;align=center;horizontal=0;direction=west;fontSize=30;fontFamily=Roboto Slab;fontSource=https%3A%2F%2Ffonts.googleapis.com%2Fcss%3Ffamily%3DRoboto%2BSlab;strokeWidth=3;" vertex="1" parent="1">
          <mxGeometry x="1480" y="1704" width="150" height="100" as="geometry" />
        </mxCell>
        <mxCell id="UOAxCghRJmTxo2BegXRX-164" style="edgeStyle=orthogonalEdgeStyle;rounded=0;orthogonalLoop=1;jettySize=auto;html=1;entryX=0;entryY=0.5;entryDx=0;entryDy=0;strokeWidth=3;" edge="1" parent="1" source="UOAxCghRJmTxo2BegXRX-140" target="UOAxCghRJmTxo2BegXRX-162">
          <mxGeometry relative="1" as="geometry" />
        </mxCell>
        <mxCell id="UOAxCghRJmTxo2BegXRX-140" value="Pred&lt;sub style=&quot;font-size: 27px;&quot;&gt;2&lt;/sub&gt;" style="rounded=0;whiteSpace=wrap;html=1;fontSize=27;fontFamily=Roboto Slab;fontSource=https%3A%2F%2Ffonts.googleapis.com%2Fcss%3Ffamily%3DRoboto%2BSlab;strokeWidth=3;" vertex="1" parent="1">
          <mxGeometry x="1666" y="1715" width="80" height="80" as="geometry" />
        </mxCell>
        <mxCell id="UOAxCghRJmTxo2BegXRX-143" value="&lt;font style=&quot;font-size: 30px;&quot;&gt;λ&lt;br style=&quot;font-size: 30px;&quot;&gt;Certain&lt;/font&gt;" style="shape=partialRectangle;whiteSpace=wrap;html=1;bottom=1;right=1;fillColor=none;direction=north;top=1;strokeWidth=3;noLabel=0;fixDash=0;container=0;dropTarget=0;left=1;fillOpacity=100;fontFamily=Roboto Slab;fontSource=https%3A%2F%2Ffonts.googleapis.com%2Fcss%3Ffamily%3DRoboto%2BSlab;fontSize=30;" vertex="1" parent="1">
          <mxGeometry x="1980" y="1717.5" width="120" height="75" as="geometry" />
        </mxCell>
        <mxCell id="UOAxCghRJmTxo2BegXRX-148" value="&lt;font style=&quot;font-size: 30px;&quot;&gt;Teacher&lt;/font&gt;" style="text;html=1;strokeColor=none;fillColor=none;align=center;verticalAlign=middle;whiteSpace=wrap;rounded=0;fontFamily=Roboto Slab;fontSource=https%3A%2F%2Ffonts.googleapis.com%2Fcss%3Ffamily%3DRoboto%2BSlab;fontSize=30;strokeWidth=3;" vertex="1" parent="1">
          <mxGeometry x="1481" y="1817" width="60" height="30" as="geometry" />
        </mxCell>
        <mxCell id="UOAxCghRJmTxo2BegXRX-151" style="edgeStyle=orthogonalEdgeStyle;rounded=0;orthogonalLoop=1;jettySize=auto;html=1;entryX=0.5;entryY=1;entryDx=0;entryDy=0;fontFamily=Roboto Slab;fontSource=https%3A%2F%2Ffonts.googleapis.com%2Fcss%3Ffamily%3DRoboto%2BSlab;fontSize=30;strokeWidth=3;" edge="1" parent="1" source="UOAxCghRJmTxo2BegXRX-150" target="UOAxCghRJmTxo2BegXRX-136">
          <mxGeometry relative="1" as="geometry" />
        </mxCell>
        <mxCell id="UOAxCghRJmTxo2BegXRX-156" value="&lt;h3 style=&quot;border-color: var(--border-color); font-size: 30px;&quot; class=&quot;LC20lb MBeuO DKV0Md&quot;&gt;η2&lt;/h3&gt;" style="edgeLabel;html=1;align=center;verticalAlign=middle;resizable=0;points=[];fontFamily=Roboto Slab;fontSource=https%3A%2F%2Ffonts.googleapis.com%2Fcss%3Ffamily%3DRoboto%2BSlab;fontSize=30;" vertex="1" connectable="0" parent="UOAxCghRJmTxo2BegXRX-151">
          <mxGeometry x="-0.1985" relative="1" as="geometry">
            <mxPoint x="-24" y="-4" as="offset" />
          </mxGeometry>
        </mxCell>
        <mxCell id="UOAxCghRJmTxo2BegXRX-150" value="X" style="rounded=0;whiteSpace=wrap;html=1;fontSize=30;fontFamily=Roboto Slab;fontSource=https%3A%2F%2Ffonts.googleapis.com%2Fcss%3Ffamily%3DRoboto%2BSlab;strokeWidth=3;" vertex="1" parent="1">
          <mxGeometry x="1190" y="1714" width="80" height="80" as="geometry" />
        </mxCell>
        <mxCell id="UOAxCghRJmTxo2BegXRX-153" style="edgeStyle=orthogonalEdgeStyle;rounded=0;orthogonalLoop=1;jettySize=auto;html=1;entryX=0.5;entryY=1;entryDx=0;entryDy=0;fontFamily=Roboto Slab;fontSource=https%3A%2F%2Ffonts.googleapis.com%2Fcss%3Ffamily%3DRoboto%2BSlab;fontSize=30;strokeWidth=3;" edge="1" parent="1" source="UOAxCghRJmTxo2BegXRX-152" target="UOAxCghRJmTxo2BegXRX-136">
          <mxGeometry relative="1" as="geometry" />
        </mxCell>
        <mxCell id="UOAxCghRJmTxo2BegXRX-155" value="&lt;h3 style=&quot;border-color: var(--border-color); font-size: 30px;&quot; class=&quot;LC20lb MBeuO DKV0Md&quot;&gt;η&lt;sub style=&quot;font-size: 30px;&quot;&gt;n&lt;/sub&gt;&lt;/h3&gt;" style="edgeLabel;html=1;align=center;verticalAlign=middle;resizable=0;points=[];fontFamily=Roboto Slab;fontSource=https%3A%2F%2Ffonts.googleapis.com%2Fcss%3Ffamily%3DRoboto%2BSlab;fontSize=30;" vertex="1" connectable="0" parent="UOAxCghRJmTxo2BegXRX-153">
          <mxGeometry x="-0.2802" y="-1" relative="1" as="geometry">
            <mxPoint x="-38" y="14" as="offset" />
          </mxGeometry>
        </mxCell>
        <mxCell id="UOAxCghRJmTxo2BegXRX-152" value="X" style="rounded=0;whiteSpace=wrap;html=1;fontSize=30;fontFamily=Roboto Slab;fontSource=https%3A%2F%2Ffonts.googleapis.com%2Fcss%3Ffamily%3DRoboto%2BSlab;strokeWidth=3;" vertex="1" parent="1">
          <mxGeometry x="1190" y="1805" width="80" height="80" as="geometry" />
        </mxCell>
        <mxCell id="UOAxCghRJmTxo2BegXRX-165" style="edgeStyle=orthogonalEdgeStyle;rounded=0;orthogonalLoop=1;jettySize=auto;html=1;entryX=0;entryY=0.5;entryDx=0;entryDy=0;strokeWidth=3;" edge="1" parent="1" source="UOAxCghRJmTxo2BegXRX-158" target="UOAxCghRJmTxo2BegXRX-162">
          <mxGeometry relative="1" as="geometry" />
        </mxCell>
        <mxCell id="UOAxCghRJmTxo2BegXRX-158" value="Pred&lt;sub style=&quot;font-size: 27px;&quot;&gt;1&lt;/sub&gt;" style="rounded=0;whiteSpace=wrap;html=1;fontSize=27;fontFamily=Roboto Slab;fontSource=https%3A%2F%2Ffonts.googleapis.com%2Fcss%3Ffamily%3DRoboto%2BSlab;strokeWidth=3;" vertex="1" parent="1">
          <mxGeometry x="1666" y="1624" width="80" height="80" as="geometry" />
        </mxCell>
        <mxCell id="UOAxCghRJmTxo2BegXRX-166" style="edgeStyle=orthogonalEdgeStyle;rounded=0;orthogonalLoop=1;jettySize=auto;html=1;entryX=0;entryY=0.5;entryDx=0;entryDy=0;strokeWidth=3;" edge="1" parent="1" source="UOAxCghRJmTxo2BegXRX-159" target="UOAxCghRJmTxo2BegXRX-162">
          <mxGeometry relative="1" as="geometry" />
        </mxCell>
        <mxCell id="UOAxCghRJmTxo2BegXRX-159" value="Pred&lt;sub style=&quot;font-size: 27px;&quot;&gt;n&lt;/sub&gt;" style="rounded=0;whiteSpace=wrap;html=1;fontSize=27;fontFamily=Roboto Slab;fontSource=https%3A%2F%2Ffonts.googleapis.com%2Fcss%3Ffamily%3DRoboto%2BSlab;strokeWidth=3;" vertex="1" parent="1">
          <mxGeometry x="1666" y="1805" width="80" height="80" as="geometry" />
        </mxCell>
        <mxCell id="UOAxCghRJmTxo2BegXRX-163" style="edgeStyle=orthogonalEdgeStyle;rounded=0;orthogonalLoop=1;jettySize=auto;html=1;entryX=0.5;entryY=0;entryDx=0;entryDy=0;strokeWidth=3;" edge="1" parent="1" source="UOAxCghRJmTxo2BegXRX-162" target="UOAxCghRJmTxo2BegXRX-143">
          <mxGeometry relative="1" as="geometry" />
        </mxCell>
        <mxCell id="UOAxCghRJmTxo2BegXRX-162" value="&lt;font style=&quot;font-size: 27px;&quot;&gt;Entropy&lt;/font&gt;" style="shape=hexagon;perimeter=hexagonPerimeter2;whiteSpace=wrap;html=1;fixedSize=1;strokeWidth=3;fontFamily=Roboto Slab;fontSource=https%3A%2F%2Ffonts.googleapis.com%2Fcss%3Ffamily%3DRoboto%2BSlab;fontSize=30;" vertex="1" parent="1">
          <mxGeometry x="1810" y="1714" width="120" height="80" as="geometry" />
        </mxCell>
      </root>
    </mxGraphModel>
  </diagram>
</mxfile>
